<?xml version="1.0" standalone="no"?>
<!DOCTYPE svg PUBLIC "-//W3C//DTD SVG 20010904//EN"
 "http://www.w3.org/TR/2001/REC-SVG-20010904/DTD/svg10.dtd">
<svg version="1.0" xmlns="http://www.w3.org/2000/svg"
 width="32.000000pt" height="32.000000pt" viewBox="0 0 32.000000 32.000000"
 preserveAspectRatio="xMidYMid meet">

<g transform="translate(0.000000,32.000000) scale(0.100000,-0.100000)"
fill="#000000" stroke="none">
<path d="M140 250 c0 -53 2 -60 20 -60 18 0 20 7 20 60 0 53 -2 60 -20 60 -18
0 -20 -7 -20 -60z"/>
<path d="M82 254 c-52 -36 -68 -123 -33 -180 13 -21 36 -38 65 -49 43 -17 48
-17 91 -1 75 29 107 114 70 186 -14 27 -51 60 -67 60 -16 0 -7 -33 17 -62 44
-53 28 -122 -35 -148 -24 -10 -36 -10 -60 0 -63 26 -79 95 -35 148 24 29 33
62 17 62 -4 0 -18 -7 -30 -16z"/>
</g>
</svg>
